<svg width="40" height="20" viewBox="0 0 40 20" fill="none" xmlns="http://www.w3.org/2000/svg">
<path d="M38 0H2C0.875 0 0 0.9375 0 2V18C0 19.125 0.875 20 2 20H38C39.0625 20 40 19.125 40 18V2C40 0.9375 39.0625 0 38 0ZM19 16C19 16.3125 18.75 16.5 18.5 16.5H4.5C4.1875 16.5 4 16.3125 4 16V15.5C4 15.25 4.1875 15 4.5 15H18.5C18.75 15 19 15.25 19 15.5V16ZM4.5 12V11C4.5 10.75 4.6875 10.5 5 10.5H6C6.25 10.5 6.5 10.75 6.5 11V12C6.5 12.3125 6.25 12.5 6 12.5H5C4.6875 12.5 4.5 12.3125 4.5 12ZM8.5 12V11C8.5 10.75 8.6875 10.5 9 10.5H10C10.25 10.5 10.5 10.75 10.5 11V12C10.5 12.3125 10.25 12.5 10 12.5H9C8.6875 12.5 8.5 12.3125 8.5 12ZM12.5 12V11C12.5 10.75 12.6875 10.5 13 10.5H14C14.25 10.5 14.5 10.75 14.5 11V12C14.5 12.3125 14.25 12.5 14 12.5H13C12.6875 12.5 12.5 12.3125 12.5 12ZM16.5 12V11C16.5 10.75 16.6875 10.5 17 10.5H18C18.25 10.5 18.5 10.75 18.5 11V12C18.5 12.3125 18.25 12.5 18 12.5H17C16.6875 12.5 16.5 12.3125 16.5 12ZM19 8C19 8.5625 18.5 9 18 9H5C4.4375 9 4 8.5625 4 8V5C4 4.5 4.4375 4 5 4H18C18.5 4 19 4.5 19 5V8ZM36 16C36 16.3125 35.75 16.5 35.5 16.5H21.5C21.1875 16.5 21 16.3125 21 16V15.5C21 15.25 21.1875 15 21.5 15H35.5C35.75 15 36 15.25 36 15.5V16Z" fill="#D90062"/>
</svg>
