<svg width="41" height="33" viewBox="0 0 41 33" fill="none" xmlns="http://www.w3.org/2000/svg">
<path d="M18.375 32C18.8125 32.125 19.1875 31.875 19.3125 31.5L27.875 2.125C28 1.6875 27.75 1.25 27.375 1.1875L23.5625 0.0625C23.125 -0.0625 22.75 0.1875 22.625 0.5625L14.0625 29.9375C13.9375 30.375 14.1875 30.75 14.5625 30.875L18.375 32ZM11.25 25L14 22.0625C14.3125 21.75 14.25 21.3125 13.9375 21L8.3125 16L13.9375 11.0625C14.25 10.75 14.3125 10.25 14 10L11.25 7.0625C11 6.75 10.5 6.75 10.1875 7.0625L1.1875 15.5C0.875 15.75 0.875 16.25 1.1875 16.5625L10.1875 25C10.5 25.3125 11 25.3125 11.25 25ZM31.75 25L40.75 16.5625C41.0625 16.3125 41.0625 15.75 40.75 15.5L31.75 7.0625C31.4375 6.75 30.9375 6.75 30.6875 7.0625L27.9375 9.9375C27.6875 10.25 27.6875 10.75 28 11.0625L33.6875 16L28 21C27.6875 21.3125 27.625 21.75 27.9375 22.0625L30.6875 25C30.9375 25.3125 31.4375 25.3125 31.75 25Z" fill="#D90062"/>
</svg>
