<svg width="33" height="33" viewBox="0 0 33 33" fill="none" xmlns="http://www.w3.org/2000/svg">
<path d="M13.75 0.3125C7.5 1.5625 2.5 6.5625 1.3125 12.75C-1 24.4375 9.5 33.125 17.5 31.9375C20.0625 31.5 21.3125 28.5 20.125 26.1875C18.6875 23.3125 20.75 20 23.9375 20H28.9375C31.125 20 32.9375 18.1875 33 15.9375C32.9375 6.125 24 -1.625 13.75 0.3125ZM7 20C5.875 20 5 19.125 5 18C5 16.9375 5.875 16 7 16C8.0625 16 9 16.9375 9 18C9 19.125 8.0625 20 7 20ZM9 12C7.875 12 7 11.125 7 10C7 8.9375 7.875 8 9 8C10.0625 8 11 8.9375 11 10C11 11.125 10.0625 12 9 12ZM17 8C15.875 8 15 7.125 15 6C15 4.9375 15.875 4 17 4C18.0625 4 19 4.9375 19 6C19 7.125 18.0625 8 17 8ZM25 12C23.875 12 23 11.125 23 10C23 8.9375 23.875 8 25 8C26.0625 8 27 8.9375 27 10C27 11.125 26.0625 12 25 12Z" fill="#D90062"/>
</svg>
